<svg xmlns="http://www.w3.org/2000/svg" width="1150" height="470" viewBox="0 0 1150 470">
<style>text{font-family:Segoe UI,Arial,sans-serif}.title{font-size:24px;font-weight:700;fill:#17304f}.sub{font-size:13px;fill:#657792}.axis{stroke:#9eb0c8;stroke-width:1}.grid{stroke:#e8eef6;stroke-width:1}.lab{font-size:12px;fill:#324861}.small{font-size:11px;fill:#5f6f86}.legend{font-size:12px;fill:#30455f}.box{fill:#fff;stroke:#dbe6f2;stroke-width:1.2}.line{stroke:#1f2937;stroke-width:2.2;fill:none}.point{fill:#1f2937}.inside{font-size:15px;font-weight:700;fill:#fff}.inside-dark{font-size:14px;font-weight:700;fill:#12263f}</style>
<rect class="box" x="8" y="8" width="1134" height="454" rx="18"/>
<text class="title" x="24" y="38">Dashboard 1 ? Vista Operativa</text>
<text class="sub" x="24" y="58">421-26 (SITE) ? copertura totale anche con personale fuori mansione ? linea = fabbisogno</text>
<rect x="860" y="24" width="12" height="12" rx="2" fill="#2ea36d"/>
<text class="legend" x="878" y="34">Allocati</text>
<rect x="860" y="44" width="12" height="12" rx="2" fill="#f0a63a"/>
<text class="legend" x="878" y="54">Fuori mansione / extra</text>
<rect x="860" y="64" width="12" height="12" rx="2" fill="#e35a46"/>
<text class="legend" x="878" y="74">Mancanti</text>
<line class="line" x1="1025" y1="29" x2="1045" y2="29"/>
<circle class="point" cx="1035" cy="29" r="3"/>
<text class="legend" x="1054" y="33">Fabbisogno</text>
<line class="grid" x1="70" y1="410.0" x2="1120" y2="410.0"/>
<text class="small" x="60" y="414.0" text-anchor="end">0</text>
<line class="grid" x1="70" y1="342.4" x2="1120" y2="342.4"/>
<text class="small" x="60" y="346.4" text-anchor="end">3</text>
<line class="grid" x1="70" y1="274.8" x2="1120" y2="274.8"/>
<text class="small" x="60" y="278.8" text-anchor="end">6</text>
<line class="grid" x1="70" y1="207.2" x2="1120" y2="207.2"/>
<text class="small" x="60" y="211.2" text-anchor="end">10</text>
<line class="grid" x1="70" y1="139.6" x2="1120" y2="139.6"/>
<text class="small" x="60" y="143.6" text-anchor="end">13</text>
<line class="grid" x1="70" y1="72.0" x2="1120" y2="72.0"/>
<text class="small" x="60" y="76.0" text-anchor="end">16</text>
<line class="axis" x1="70" y1="72" x2="70" y2="410"/>
<line class="axis" x1="70" y1="410" x2="1120" y2="410"/>
<rect x="101.5" y="304.4" width="68.2" height="105.6" fill="#2ea36d" rx="4"/>
<text class="inside" x="135.6" y="362.2" text-anchor="middle">5</text>
<line x1="179.8" y1="304.4" x2="187.8" y2="304.4" stroke="#1f2937" stroke-width="2.2"/>
<circle class="point" cx="183.8" cy="304.4" r="3"/>
<text class="small" x="183.8" y="296.4" text-anchor="middle">5</text>
<text class="lab" x="135.6" y="432" text-anchor="middle">W13</text>
<rect x="232.8" y="304.4" width="68.2" height="105.6" fill="#2ea36d" rx="4"/>
<text class="inside" x="266.9" y="362.2" text-anchor="middle">5</text>
<line x1="311.0" y1="304.4" x2="319.0" y2="304.4" stroke="#1f2937" stroke-width="2.2"/>
<circle class="point" cx="315.0" cy="304.4" r="3"/>
<text class="small" x="315.0" y="296.4" text-anchor="middle">5</text>
<text class="lab" x="266.9" y="432" text-anchor="middle">W14</text>
<rect x="364.0" y="262.1" width="68.2" height="147.9" fill="#2ea36d" rx="4"/>
<text class="inside" x="398.1" y="341.1" text-anchor="middle">7</text>
<rect x="364.0" y="135.4" width="68.2" height="126.8" fill="#e35a46" rx="4"/>
<text class="inside" x="398.1" y="203.8" text-anchor="middle">6</text>
<line x1="442.2" y1="135.4" x2="450.2" y2="135.4" stroke="#1f2937" stroke-width="2.2"/>
<circle class="point" cx="446.2" cy="135.4" r="3"/>
<text class="small" x="446.2" y="127.4" text-anchor="middle">13</text>
<text class="lab" x="398.1" y="432" text-anchor="middle">W15</text>
<rect x="495.2" y="262.1" width="68.2" height="147.9" fill="#2ea36d" rx="4"/>
<text class="inside" x="529.4" y="341.1" text-anchor="middle">7</text>
<rect x="495.2" y="93.1" width="68.2" height="169.0" fill="#e35a46" rx="4"/>
<text class="inside" x="529.4" y="182.6" text-anchor="middle">8</text>
<line x1="573.5" y1="93.1" x2="581.5" y2="93.1" stroke="#1f2937" stroke-width="2.2"/>
<circle class="point" cx="577.5" cy="93.1" r="3"/>
<text class="small" x="577.5" y="85.1" text-anchor="middle">15</text>
<text class="lab" x="529.4" y="432" text-anchor="middle">W16</text>
<rect x="626.5" y="241.0" width="68.2" height="169.0" fill="#2ea36d" rx="4"/>
<text class="inside" x="660.6" y="330.5" text-anchor="middle">8</text>
<rect x="626.5" y="72.0" width="68.2" height="169.0" fill="#e35a46" rx="4"/>
<text class="inside" x="660.6" y="161.5" text-anchor="middle">8</text>
<line x1="704.8" y1="72.0" x2="712.8" y2="72.0" stroke="#1f2937" stroke-width="2.2"/>
<circle class="point" cx="708.8" cy="72.0" r="3"/>
<text class="small" x="708.8" y="64.0" text-anchor="middle">16</text>
<text class="lab" x="660.6" y="432" text-anchor="middle">W17</text>
<rect x="757.8" y="262.1" width="68.2" height="147.9" fill="#2ea36d" rx="4"/>
<text class="inside" x="791.9" y="341.1" text-anchor="middle">7</text>
<rect x="757.8" y="93.1" width="68.2" height="169.0" fill="#e35a46" rx="4"/>
<text class="inside" x="791.9" y="182.6" text-anchor="middle">8</text>
<line x1="836.0" y1="93.1" x2="844.0" y2="93.1" stroke="#1f2937" stroke-width="2.2"/>
<circle class="point" cx="840.0" cy="93.1" r="3"/>
<text class="small" x="840.0" y="85.1" text-anchor="middle">15</text>
<text class="lab" x="791.9" y="432" text-anchor="middle">W18</text>
<rect x="889.0" y="367.8" width="68.2" height="42.2" fill="#2ea36d" rx="4"/>
<text class="inside" x="923.1" y="393.9" text-anchor="middle">2</text>
<rect x="889.0" y="346.6" width="68.2" height="21.1" fill="#f0a63a" rx="4"/>
<text class="inside-dark" x="923.1" y="362.2" text-anchor="middle">1</text>
<line x1="967.2" y1="367.8" x2="975.2" y2="367.8" stroke="#1f2937" stroke-width="2.2"/>
<circle class="point" cx="971.2" cy="367.8" r="3"/>
<text class="small" x="971.2" y="359.8" text-anchor="middle">2</text>
<text class="lab" x="923.1" y="432" text-anchor="middle">W19</text>
<line x1="1098.5" y1="410.0" x2="1106.5" y2="410.0" stroke="#1f2937" stroke-width="2.2"/>
<circle class="point" cx="1102.5" cy="410.0" r="3"/>
<text class="small" x="1102.5" y="402.0" text-anchor="middle">0</text>
<text class="lab" x="1054.4" y="432" text-anchor="middle">W20</text>
<polyline class="line" points="179.8,304.4 311.0,304.4 442.2,135.4 573.5,93.1 704.8,72.0 836.0,93.1 967.2,367.8 1098.5,410.0" opacity="0.5"/>
</svg>