<svg xmlns="http://www.w3.org/2000/svg" width="1160" height="480" viewBox="0 0 1160 480">
<style>text{font-family:Segoe UI,Arial,sans-serif}.title{font-size:24px;font-weight:700;fill:#17304f}.sub{font-size:13px;fill:#657792}.axis{stroke:#9eb0c8;stroke-width:1}.grid{stroke:#e8eef6;stroke-width:1}.lab{font-size:12px;fill:#324861}.small{font-size:11px;fill:#5f6f86}.legend{font-size:12px;fill:#30455f}.box{fill:#fff;stroke:#dbe6f2;stroke-width:1.2}.line{stroke:#1f2937;stroke-width:2.2;fill:none}.point{fill:#1f2937}.inside{font-size:15px;font-weight:700;fill:#fff}.inside-dark{font-size:14px;font-weight:700;fill:#12263f}</style>
<rect class="box" x="8" y="8" width="1144" height="464" rx="18"/>
<text class="title" x="24" y="38">Dashboard 1 ? Mix coerenti / fuori mansione / mancanti</text>
<text class="sub" x="24" y="58">421-26 (SITE) ? linea = fabbisogno ? verde = coerenti ? arancione = fuori mansione ? rosso = mancanti</text>
<rect x="830" y="24" width="12" height="12" rx="2" fill="#2ea36d"/>
<text class="legend" x="848" y="34">Coerenti</text>
<rect x="830" y="44" width="12" height="12" rx="2" fill="#f0a63a"/>
<text class="legend" x="848" y="54">Fuori mansione</text>
<rect x="830" y="64" width="12" height="12" rx="2" fill="#e35a46"/>
<text class="legend" x="848" y="74">Mancanti</text>
<line class="line" x1="980" y1="29" x2="1000" y2="29"/>
<circle class="point" cx="990" cy="29" r="3"/>
<text class="legend" x="1009" y="33">Fabbisogno</text>
<line class="grid" x1="70" y1="420.0" x2="1130" y2="420.0"/>
<text class="small" x="60" y="424.0" text-anchor="end">0</text>
<line class="grid" x1="70" y1="350.4" x2="1130" y2="350.4"/>
<text class="small" x="60" y="354.4" text-anchor="end">3</text>
<line class="grid" x1="70" y1="280.8" x2="1130" y2="280.8"/>
<text class="small" x="60" y="284.8" text-anchor="end">6</text>
<line class="grid" x1="70" y1="211.2" x2="1130" y2="211.2"/>
<text class="small" x="60" y="215.2" text-anchor="end">10</text>
<line class="grid" x1="70" y1="141.6" x2="1130" y2="141.6"/>
<text class="small" x="60" y="145.6" text-anchor="end">13</text>
<line class="grid" x1="70" y1="72.0" x2="1130" y2="72.0"/>
<text class="small" x="60" y="76.0" text-anchor="end">16</text>
<line class="axis" x1="70" y1="72" x2="70" y2="420"/>
<line class="axis" x1="70" y1="420" x2="1130" y2="420"/>
<rect x="103.1" y="398.2" width="66.2" height="21.8" fill="#2ea36d" rx="4"/>
<text class="inside" x="136.2" y="414.1" text-anchor="middle">1</text>
<rect x="103.1" y="311.2" width="66.2" height="87.0" fill="#f0a63a" rx="4"/>
<text class="inside-dark" x="136.2" y="359.8" text-anchor="middle">4</text>
<circle class="point" cx="136.2" cy="311.2" r="3.4"/>
<text class="small" x="136.2" y="303.2" text-anchor="middle">5</text>
<text class="lab" x="136.2" y="442" text-anchor="middle">W13</text>
<rect x="235.6" y="398.2" width="66.2" height="21.8" fill="#2ea36d" rx="4"/>
<text class="inside" x="268.8" y="414.1" text-anchor="middle">1</text>
<rect x="235.6" y="311.2" width="66.2" height="87.0" fill="#f0a63a" rx="4"/>
<text class="inside-dark" x="268.8" y="359.8" text-anchor="middle">4</text>
<circle class="point" cx="268.8" cy="311.2" r="3.4"/>
<text class="small" x="268.8" y="303.2" text-anchor="middle">5</text>
<text class="lab" x="268.8" y="442" text-anchor="middle">W14</text>
<rect x="368.1" y="267.8" width="66.2" height="152.2" fill="#f0a63a" rx="4"/>
<text class="inside-dark" x="401.2" y="348.9" text-anchor="middle">7</text>
<rect x="368.1" y="137.2" width="66.2" height="130.5" fill="#e35a46" rx="4"/>
<text class="inside" x="401.2" y="207.5" text-anchor="middle">6</text>
<circle class="point" cx="401.2" cy="137.2" r="3.4"/>
<text class="small" x="401.2" y="129.2" text-anchor="middle">13</text>
<text class="lab" x="401.2" y="442" text-anchor="middle">W15</text>
<rect x="500.6" y="267.8" width="66.2" height="152.2" fill="#f0a63a" rx="4"/>
<text class="inside-dark" x="533.8" y="348.9" text-anchor="middle">7</text>
<rect x="500.6" y="93.8" width="66.2" height="174.0" fill="#e35a46" rx="4"/>
<text class="inside" x="533.8" y="185.8" text-anchor="middle">8</text>
<circle class="point" cx="533.8" cy="93.8" r="3.4"/>
<text class="small" x="533.8" y="85.8" text-anchor="middle">15</text>
<text class="lab" x="533.8" y="442" text-anchor="middle">W16</text>
<rect x="633.1" y="246.0" width="66.2" height="174.0" fill="#f0a63a" rx="4"/>
<text class="inside-dark" x="666.2" y="338.0" text-anchor="middle">8</text>
<rect x="633.1" y="72.0" width="66.2" height="174.0" fill="#e35a46" rx="4"/>
<text class="inside" x="666.2" y="164.0" text-anchor="middle">8</text>
<circle class="point" cx="666.2" cy="72.0" r="3.4"/>
<text class="small" x="666.2" y="84.0" text-anchor="middle">16</text>
<text class="lab" x="666.2" y="442" text-anchor="middle">W17</text>
<rect x="765.6" y="267.8" width="66.2" height="152.2" fill="#f0a63a" rx="4"/>
<text class="inside-dark" x="798.8" y="348.9" text-anchor="middle">7</text>
<rect x="765.6" y="93.8" width="66.2" height="174.0" fill="#e35a46" rx="4"/>
<text class="inside" x="798.8" y="185.8" text-anchor="middle">8</text>
<circle class="point" cx="798.8" cy="93.8" r="3.4"/>
<text class="small" x="798.8" y="85.8" text-anchor="middle">15</text>
<text class="lab" x="798.8" y="442" text-anchor="middle">W18</text>
<rect x="898.1" y="398.2" width="66.2" height="21.8" fill="#2ea36d" rx="4"/>
<text class="inside" x="931.2" y="414.1" text-anchor="middle">1</text>
<rect x="898.1" y="376.5" width="66.2" height="21.8" fill="#f0a63a" rx="4"/>
<text class="inside-dark" x="931.2" y="392.4" text-anchor="middle">1</text>
<circle class="point" cx="931.2" cy="376.5" r="3.4"/>
<text class="small" x="931.2" y="368.5" text-anchor="middle">2</text>
<text class="lab" x="931.2" y="442" text-anchor="middle">W19</text>
<circle class="point" cx="1063.8" cy="420.0" r="3.4"/>
<text class="small" x="1063.8" y="412.0" text-anchor="middle">0</text>
<text class="lab" x="1063.8" y="442" text-anchor="middle">W20</text>
<polyline class="line" points="136.2,311.2 268.8,311.2 401.2,137.2 533.8,93.8 666.2,72.0 798.8,93.8 931.2,376.5 1063.8,420.0"/>
</svg>